<svg className="password-toggle-icon" width="17" height="19" viewBox="0 0 17 19" fill="none" xmlns="http://www.w3.org/2000/svg">
<path d="M7.72419 16.0625H4.93752C4.44669 16.0625 4.01127 16.045 3.62335 15.9837C1.54127 15.73 
0.979187 14.645 0.979187 11.6875V7.3125C0.979187 4.355 1.54127 3.27 3.62335 3.01625C4.01127
 2.955 4.44669 2.9375 4.93752 2.9375H7.67669M10.8909 2.9375H12.0625C12.5534 2.9375 12.9888
  2.955 13.3767 3.01625C15.4588 3.27 16.0209 4.355 16.0209 7.3125V11.6875C16.0209 14.645
   15.4588 15.73 13.3767 15.9837C12.9888 16.045 12.5534 16.0625 12.0625 16.0625H10.8909M10.875
    0.75V18.25M7.78315 9.5H7.79026M4.61649 9.5H4.6236" stroke="#292D32" stroke-width="1.5" stroke-linecap="round" stroke-linejoin="round"/>
</svg>
